<?xml version="1.0" standalone="no"?>
<!DOCTYPE svg PUBLIC "-//W3C//DTD SVG 20010904//EN"
 "http://www.w3.org/TR/2001/REC-SVG-20010904/DTD/svg10.dtd">
<svg version="1.0" xmlns="http://www.w3.org/2000/svg"
 width="462.000000pt" height="540.000000pt" viewBox="0 0 462.000000 540.000000"
 preserveAspectRatio="xMidYMid meet">
<metadata>
Created by potrace 1.16, written by Peter Selinger 2001-2019
</metadata>
<g transform="translate(0.000000,540.000000) scale(0.100000,-0.100000)"
fill="#000000" stroke="none">
<path d="M2890 5029 c-101 -26 -193 -57 -266 -89 -47 -21 -77 -46 -134 -108
l-73 -80 -66 -6 c-72 -8 -128 -29 -195 -75 -25 -17 -53 -31 -63 -31 -67 -1
-203 -114 -250 -208 -26 -53 -28 -65 -28 -179 0 -137 -10 -138 -41 -4 -14 62
-15 87 -6 152 13 91 37 143 95 207 l42 46 -36 -27 c-46 -34 -84 -89 -109 -156
-42 -109 -35 -221 20 -339 17 -35 30 -65 30 -67 0 -1 -18 -5 -41 -9 -58 -9
-88 -27 -140 -83 -114 -122 -127 -320 -28 -444 16 -20 29 -40 29 -43 0 -9 -62
2 -145 27 -99 29 -185 28 -256 -5 -101 -46 -138 -129 -109 -248 15 -63 2 -101
-45 -130 -51 -32 -82 -26 -158 29 -104 76 -151 96 -227 96 -57 0 -73 -5 -124
-35 -67 -41 -100 -81 -123 -147 -9 -27 -36 -88 -60 -137 -24 -48 -43 -95 -43
-105 1 -9 17 18 37 59 l36 75 9 -70 c4 -38 15 -94 23 -122 14 -48 14 -58 0
-108 -10 -33 -15 -84 -14 -127 l2 -73 -90 -6 c-103 -8 -130 -19 -139 -56 -12
-48 47 -178 132 -290 32 -42 57 -86 61 -106 5 -34 4 -35 -43 -52 -131 -47
-185 -91 -198 -159 -9 -45 8 -107 38 -143 12 -15 40 -62 62 -103 77 -148 222
-267 377 -310 38 -11 71 -21 73 -23 2 -2 -1 -30 -7 -63 -12 -71 -68 -442 -76
-499 -6 -51 5 -62 83 -76 44 -8 77 -8 132 1 84 15 90 24 72 111 -23 105 -23
207 -1 329 12 63 24 135 27 160 4 25 16 72 28 105 l21 60 90 1 c117 1 229 13
285 30 38 11 55 11 120 -2 100 -20 140 -33 140 -46 0 -6 3 -9 6 -5 4 3 24 -3
45 -13 49 -25 57 -25 33 1 -23 25 -93 68 -147 90 l-39 16 30 12 c16 7 42 26
58 42 l28 29 -70 -36 -71 -36 -84 21 c-46 11 -112 24 -146 27 -35 4 -63 11
-63 15 0 5 5 9 10 9 6 0 45 16 86 35 41 19 79 35 84 35 17 0 120 52 120 61 0
4 -19 2 -41 -6 -23 -8 -44 -15 -46 -15 -3 0 16 23 41 51 25 27 59 80 77 117
30 63 32 66 46 47 45 -62 102 -138 126 -168 27 -34 28 -36 13 -72 -22 -52 -20
-72 13 -135 15 -30 34 -80 41 -110 6 -30 21 -84 32 -120 10 -36 30 -128 44
-205 13 -77 27 -160 31 -184 12 -66 39 -81 154 -88 115 -7 169 10 169 51 0 52
-30 104 -81 138 -64 44 -108 134 -145 298 -8 36 -17 74 -20 85 -15 56 -15 103
0 133 16 31 18 32 87 32 38 0 84 6 102 14 45 19 86 60 93 94 3 16 31 53 68 90
l63 62 20 -23 c54 -61 141 -217 142 -257 1 -19 10 -117 15 -151 1 -15 12 -42
24 -60 11 -19 22 -47 25 -64 8 -50 58 -215 82 -270 7 -16 18 -56 25 -88 6 -32
14 -57 16 -54 8 7 -40 226 -65 299 -19 56 -38 147 -28 138 22 -21 85 -126 80
-133 -3 -6 -1 -7 5 -3 6 3 20 -11 33 -31 12 -21 32 -48 45 -60 15 -15 26 -44
34 -95 14 -79 69 -202 110 -247 14 -15 37 -32 53 -39 17 -7 27 -19 27 -32 0
-20 -1 -20 -27 -5 -50 29 -60 39 -95 95 -60 93 -79 140 -97 229 -13 63 -25 94
-43 114 -14 15 -28 27 -32 27 -4 0 0 -7 8 -16 21 -20 23 -51 2 -32 -8 7 -11
17 -8 22 3 5 0 6 -6 2 -8 -5 -12 2 -13 21 -1 15 -3 21 -6 12 -2 -9 5 -49 17
-90 11 -41 30 -116 40 -168 21 -98 28 -113 123 -256 32 -48 56 -90 52 -93 -16
-16 -60 26 -80 76 -12 28 -37 69 -57 90 -19 20 -40 51 -46 67 l-10 30 -1 -30
c-1 -24 9 -40 40 -70 23 -22 54 -68 69 -102 30 -66 35 -68 121 -78 55 -7 57
-8 68 -45 14 -46 14 -77 1 -85 -6 -3 -10 -17 -10 -31 l0 -24 138 1 c109 0 150
5 202 21 36 11 71 25 78 31 14 11 16 67 2 67 -5 0 -10 -9 -10 -19 0 -28 -11
-52 -21 -45 -5 3 -9 18 -9 35 0 25 -4 29 -28 29 -26 0 -28 -3 -24 -29 2 -16
-1 -32 -7 -35 -6 -4 -11 0 -11 9 0 9 -4 24 -10 34 -8 16 -16 17 -57 10 -58
-11 -153 -48 -153 -60 0 -5 -9 -9 -19 -9 -11 0 -23 -5 -26 -10 -8 -13 -35 -13
-35 0 0 5 6 15 13 22 10 9 11 22 4 53 -5 22 -12 85 -17 140 -11 140 -19 167
-85 280 -32 55 -69 120 -84 145 -54 96 -189 286 -253 357 -31 35 -38 50 -38
85 0 57 -21 134 -59 214 -27 58 -31 77 -31 153 0 65 -8 113 -31 196 -17 61
-37 133 -44 160 -7 28 -14 42 -14 33 -1 -20 -45 -26 -56 -8 -4 6 -11 8 -16 5
-5 -4 -9 2 -10 12 0 10 -3 13 -5 7 -3 -6 0 -29 5 -50 40 -159 50 -205 55 -249
l5 -50 -35 40 c-46 51 -131 179 -183 275 -22 41 -41 71 -41 67 0 -16 32 -83
62 -130 32 -50 32 -63 0 -53 -37 12 -145 284 -158 396 -8 71 -1 80 56 80 19 0
50 9 68 20 l34 21 51 -26 c104 -51 221 -129 286 -191 76 -71 155 -175 157
-204 1 -11 7 -26 14 -35 7 -8 8 -15 3 -15 -5 0 -9 -9 -9 -19 0 -11 4 -18 7
-15 4 2 1 -9 -7 -26 -11 -21 -15 -53 -12 -110 2 -46 -1 -80 -6 -80 -6 0 -5 -5
2 -12 7 -7 12 -35 12 -64 0 -29 4 -54 9 -56 5 -2 12 -23 15 -47 6 -48 16 -63
41 -67 13 -2 14 8 10 59 -3 34 -10 134 -15 222 -5 88 -14 175 -19 193 -9 29
-8 32 4 22 25 -21 35 -80 49 -288 l13 -200 63 -129 c34 -70 82 -186 106 -256
54 -156 92 -232 187 -374 27 -39 57 -100 68 -135 19 -65 57 -122 94 -139 20
-10 20 -10 -1 8 -31 28 -56 70 -77 131 -10 30 -40 87 -67 127 -56 83 -106 183
-135 268 l-20 58 24 18 c22 17 23 24 26 159 2 78 -1 145 -6 148 -23 14 -2 48
76 124 103 101 198 232 262 363 53 107 53 107 137 82 63 -19 186 -19 259 0
117 30 238 110 274 179 9 17 16 56 17 86 0 103 -76 212 -214 304 l-62 41 -3
80 c-2 44 -8 92 -13 106 l-11 27 81 7 c87 7 222 40 308 74 84 34 153 91 184
152 48 97 30 160 -72 259 -37 36 -76 78 -87 93 -57 81 -253 205 -390 248 -34
10 -74 28 -88 39 -25 20 -25 20 -10 73 8 28 17 104 20 167 5 97 2 129 -16 200
-58 233 -190 377 -415 450 -40 13 -107 48 -160 84 l-91 61 -7 105 c-10 129
-24 211 -41 226 -9 10 -29 8 -87 -7z m40 -19 c-13 -8 -15 -44 -15 -223 l0
-213 -30 -46 c-29 -45 -139 -207 -229 -338 -78 -114 -180 -234 -221 -261 -62
-40 -274 -119 -321 -119 -13 0 -29 15 -44 42 l-24 42 -8 -29 c-22 -78 -48
-208 -48 -239 0 -29 4 -34 30 -39 41 -9 38 -27 -4 -27 -32 0 -34 2 -40 46 -9
68 -7 120 8 199 8 39 21 106 29 151 25 130 119 334 253 550 94 151 115 179
212 296 77 93 128 124 290 179 109 36 199 53 162 29z m-564 -327 c-143 -189
-344 -578 -364 -704 -9 -54 -9 -54 -22 -26 -7 15 -16 27 -20 27 -4 0 -19 27
-34 60 -30 66 -28 76 23 124 26 25 31 27 31 11 0 -10 3 -16 6 -12 3 3 0 40 -7
82 -9 60 -9 88 1 133 27 124 91 220 187 284 78 50 124 67 186 68 l49 0 -36
-47z m-342 -150 c-51 -85 -67 -151 -62 -247 l5 -81 -43 -46 c-52 -57 -55 -54
-62 89 -4 89 -2 110 18 165 12 34 32 75 43 90 25 36 94 87 118 87 15 0 12 -9
-17 -57z m1094 -43 c9 -5 43 -19 74 -31 178 -64 360 -275 387 -449 24 -152 33
-221 29 -225 -2 -3 -12 11 -21 31 -10 20 -12 32 -6 28 21 -13 1 74 -37 155
-22 49 -55 97 -92 136 -31 34 -21 25 22 -18 76 -77 79 -78 72 -46 -14 71 -59
144 -140 225 -87 86 -157 131 -276 175 -41 15 -65 28 -52 29 12 0 30 -4 40
-10z m247 -68 c123 -65 237 -198 275 -320 23 -73 25 -185 6 -247 l-13 -40 -11
40 c-7 22 -12 58 -12 80 0 174 -166 419 -345 511 l-50 26 40 -7 c22 -4 72 -23
110 -43z m-1499 -1 c-3 -5 -11 -43 -16 -84 -14 -98 0 -187 46 -286 33 -71 38
-111 13 -95 -20 12 -80 16 -136 9 -70 -9 -117 -49 -163 -140 -31 -61 -33 -69
-27 -139 3 -40 12 -87 21 -104 21 -41 20 -49 -4 -27 -62 56 -66 231 -8 344 53
105 153 159 233 125 19 -7 36 -10 38 -6 3 4 -6 43 -19 86 -31 103 -33 221 -4
284 10 23 22 42 25 42 3 0 4 -4 1 -9z m1242 -103 c35 -9 42 -13 27 -18 -18 -6
-16 -9 12 -23 18 -10 41 -17 53 -17 11 0 20 -5 20 -11 0 -6 -8 -9 -19 -6 -17
4 -209 -28 -218 -37 -2 -2 44 -2 104 -1 l108 4 -90 -9 c-49 -6 -121 -19 -160
-31 -38 -12 -89 -28 -112 -35 -50 -15 -55 -11 -13 11 18 9 30 23 30 36 0 16
45 119 53 119 1 0 20 7 42 15 49 17 102 19 163 3z m15 -246 c71 -35 142 -104
212 -207 l49 -70 -60 61 c-61 62 -144 128 -152 120 -2 -3 11 -20 29 -38 19
-18 44 -46 56 -63 13 -16 39 -52 59 -80 33 -44 29 -47 -12 -10 -6 6 -21 16
-32 24 -12 8 -19 18 -16 22 2 4 -4 5 -14 2 -11 -2 -32 7 -50 22 -18 15 -32 23
-32 19 0 -4 -8 0 -17 8 -19 17 -157 88 -170 88 -4 0 20 -18 54 -40 59 -39 173
-152 195 -195 6 -11 -20 9 -57 44 -78 72 -168 134 -270 183 -69 33 -115 65
-115 80 0 14 51 41 103 54 80 21 167 12 240 -24z m-289 -102 c75 -24 168 -82
214 -134 67 -77 204 -308 227 -383 15 -53 -50 16 -183 192 -33 44 -76 96 -97
115 l-37 35 52 -84 c47 -77 120 -240 120 -265 0 -6 -14 12 -32 39 -34 55 -89
126 -127 165 -28 29 -21 14 24 -50 37 -54 85 -135 85 -147 0 -4 -12 10 -27 32
-59 87 -297 295 -338 295 -5 0 -16 4 -24 9 -11 7 -7 16 23 44 32 31 36 38 26
57 -6 11 -15 18 -20 15 -4 -3 -16 -2 -25 1 -27 11 18 36 52 29 24 -5 25 -4 7
4 -26 12 -37 27 -29 41 9 15 35 12 109 -10z m-945 -36 l31 -6 0 -96 0 -95 -47
-56 -48 -56 48 39 c26 21 49 37 50 35 16 -27 31 -87 35 -142 3 -60 1 -73 -21
-105 -30 -44 -33 -57 -23 -99 8 -35 -4 -63 -71 -169 -40 -65 -124 -188 -145
-214 -24 -29 -160 -130 -183 -136 -13 -3 -32 -1 -42 5 -15 9 -13 10 16 11 64
0 190 120 219 208 l11 33 -37 -29 c-54 -43 -116 -72 -175 -82 -112 -19 -147
-21 -147 -11 0 6 17 11 39 11 122 0 286 180 293 322 2 31 5 54 9 53 3 -2 6 12
6 31 1 18 -3 31 -8 28 -5 -3 -7 -10 -4 -15 4 -5 2 -9 -3 -9 -5 0 -10 20 -10
44 -1 25 -6 55 -11 68 -7 17 -9 9 -6 -32 2 -30 2 -44 -1 -30 -3 14 -14 72 -25
129 -24 119 -21 161 17 239 30 61 77 101 142 118 58 16 53 15 91 8z m928 -307
c105 -100 215 -256 237 -337 4 -14 -6 -2 -23 27 -29 49 -51 74 -51 56 0 -4 11
-44 25 -87 14 -44 23 -81 21 -84 -2 -2 -10 14 -16 35 -7 21 -18 45 -25 53 -7
8 -27 43 -44 78 -36 71 -49 84 -21 19 18 -40 71 -246 84 -327 4 -26 1 -20 -14
20 -11 30 -24 64 -29 75 -4 11 -16 37 -25 58 -9 21 -21 35 -26 32 -6 -3 -7 1
-4 9 3 9 -1 22 -9 30 -13 13 -14 10 -13 -28 0 -24 6 -49 12 -57 6 -8 15 -25
19 -39 10 -34 -61 55 -120 151 -46 74 -54 82 -33 32 6 -15 11 -31 10 -35 -1
-5 2 -8 8 -8 5 0 10 -7 10 -15 0 -17 20 -63 73 -169 22 -43 34 -76 28 -72 -23
14 -97 134 -154 246 -32 63 -56 107 -53 97 15 -49 46 -223 45 -251 -1 -21 -3
-25 -6 -11 -20 76 -99 287 -134 357 -12 23 -35 62 -50 85 -16 23 -29 46 -29
52 0 16 26 13 40 -4 19 -23 31 -18 24 9 -7 29 24 51 61 44 17 -4 22 -1 18 10
-5 11 1 11 28 -3 19 -10 43 -25 53 -34 18 -15 18 -15 8 5 -6 11 -18 26 -26 34
-9 7 -16 19 -16 27 0 22 33 0 117 -80z m989 -38 c94 -28 177 -77 249 -143 l60
-56 -70 25 c-109 40 -246 112 -287 151 -56 53 -53 54 48 23z m-1308 -28 c30
-32 112 -215 112 -252 0 -20 -2 -21 -17 -7 -31 26 -210 118 -229 117 -11 0 -1
-8 23 -19 71 -32 154 -94 229 -171 65 -69 72 -79 84 -139 15 -77 51 -164 97
-238 18 -29 31 -57 27 -63 -3 -5 -2 -8 3 -7 5 2 30 -18 57 -44 27 -25 63 -54
81 -64 43 -23 56 -61 62 -184 4 -87 1 -123 -17 -203 -21 -89 -28 -104 -81
-171 -32 -41 -63 -77 -69 -81 -21 -13 -23 5 -5 26 16 17 17 22 5 29 -8 5 -18
6 -22 4 -5 -3 -11 3 -14 13 -7 20 -12 33 -50 120 -14 35 -30 61 -34 58 -3 -2
-6 5 -6 17 1 24 -30 33 -42 12 -6 -11 -16 -2 -37 33 -17 26 -69 102 -116 168
-47 66 -88 128 -92 137 -16 44 -101 28 -120 -22 -12 -30 -22 -36 -44 -22 -10
6 -9 19 4 57 20 62 24 305 6 414 -13 81 -8 108 13 70 18 -32 17 -20 -1 24 -8
19 -12 37 -10 39 3 3 -15 27 -40 54 -41 44 -44 50 -28 61 14 11 15 13 1 13
-22 0 -34 -19 -41 -64 -4 -22 -13 -46 -20 -54 -12 -11 -17 -8 -31 27 -11 29
-22 41 -36 41 -27 0 -25 8 13 48 l32 35 -49 -37 c-53 -40 -70 -41 -134 -8 -42
22 -51 56 -27 96 10 17 25 46 34 64 17 36 39 40 77 16 20 -14 31 -15 62 -6 39
12 127 32 137 32 3 0 3 -6 -1 -12 -5 -9 -4 -10 4 -3 6 6 12 21 14 35 3 22 7
25 43 23 31 -2 46 -10 68 -35 27 -32 37 -25 17 13 -8 15 -7 19 5 19 8 0 15 5
15 10 0 23 60 10 88 -19z m-988 -117 c30 -8 72 -14 93 -14 31 0 38 -3 35 -17
-2 -11 -15 -18 -38 -21 -64 -7 -142 -53 -214 -127 l-70 -70 35 52 c20 29 53
66 74 83 21 16 33 30 27 30 -21 0 -98 -67 -117 -103 -22 -40 -35 -45 -58 -23
-11 11 -17 12 -26 3 -8 -8 -11 -3 -11 19 0 72 51 181 95 203 23 12 95 5 175
-15z m2294 -111 c26 -20 59 -56 73 -81 24 -41 25 -47 14 -97 -13 -60 -57 -112
-123 -146 -39 -20 -93 -25 -102 -10 -3 5 9 24 28 43 48 48 71 129 63 224 -4
39 -9 78 -13 88 -10 25 9 19 60 -21z m-2223 -51 c4 -4 9 -19 13 -33 5 -22 -2
-36 -33 -74 -41 -49 -92 -88 -128 -97 -29 -8 -29 -3 2 30 25 27 25 27 4 36
-13 6 -31 6 -50 -1 -70 -27 -3 65 96 131 38 25 77 28 96 8z m431 -29 c13 -16
14 -26 2 -81 -11 -52 -75 -192 -89 -192 -2 0 1 15 6 32 11 40 11 38 1 38 -5 0
-14 -10 -20 -22 -11 -23 -11 -23 -11 4 -1 29 77 238 88 238 5 0 15 -8 23 -17z
m2284 -59 c35 -60 31 -128 -13 -182 -49 -61 -169 -117 -311 -147 -143 -31
-227 -31 -227 -1 0 14 12 22 50 33 143 40 185 55 180 63 -3 5 0 7 8 4 25 -9
150 61 195 109 44 49 54 73 56 142 1 37 3 42 18 34 10 -5 29 -30 44 -55z
m-2211 -51 c-17 -170 -80 -322 -159 -387 -46 -37 -112 -63 -89 -34 7 8 10 18
6 21 -3 4 0 13 7 22 11 13 10 14 -6 9 -10 -4 -23 -10 -29 -14 -8 -6 -42 -6
-65 0 -3 0 9 9 26 18 16 9 51 32 76 49 64 45 161 193 189 287 20 66 34 96 46
96 3 0 2 -30 -2 -67z m-1402 -25 c-46 -49 -63 -77 -63 -108 0 -12 -23 -50 -51
-84 -29 -33 -59 -76 -67 -93 -9 -18 -19 -33 -23 -33 -11 0 -29 95 -29 154 0
50 3 56 39 89 53 48 80 65 148 93 83 34 93 30 46 -18z m206 16 c94 -31 193
-102 264 -189 159 -195 255 -367 355 -630 93 -244 198 -437 323 -591 93 -115
124 -137 199 -147 23 -2 22 -4 -17 -25 -54 -28 -66 -28 -141 8 -146 69 -267
233 -414 560 -86 192 -100 219 -197 373 -47 76 -101 164 -120 195 -45 75 -174
202 -267 262 -77 50 -199 89 -218 70 -17 -17 12 -159 44 -217 16 -30 23 -49
15 -43 -34 28 -67 123 -73 207 l-5 83 55 55 c65 65 81 68 197 29z m-255 -235
c4 -21 0 -61 -9 -95 -8 -32 -14 -86 -12 -119 2 -51 5 -61 25 -71 35 -17 36
-22 5 -21 -15 1 -30 4 -33 7 -3 4 -25 16 -49 27 l-43 22 6 -69 c4 -38 18 -108
32 -157 53 -190 65 -244 61 -261 -4 -13 -5 -12 -6 5 0 12 -6 25 -12 29 -8 5
-10 -3 -6 -27 10 -52 -18 -166 -50 -208 -27 -34 -28 -35 -31 -13 -2 15 4 29
16 38 25 17 46 69 37 91 -6 17 -7 17 -21 -1 -13 -18 -14 -12 -14 57 0 61 -7
97 -35 178 -49 143 -62 251 -41 339 15 62 15 74 2 127 -8 32 -17 81 -20 108
-4 31 1 18 13 -36 18 -81 37 -129 53 -129 3 0 2 12 -4 28 -9 23 -6 36 15 77
14 28 42 70 63 93 40 48 46 46 58 -19z m1526 -251 c51 -16 167 -75 230 -118
108 -74 251 -221 342 -351 96 -140 115 -175 165 -302 68 -178 103 -329 109
-472 5 -128 1 -162 -9 -75 -14 121 -83 323 -177 518 -117 242 -254 410 -430
527 -233 155 -369 187 -484 115 -42 -27 -46 -33 -46 -68 0 -85 36 -205 106
-361 14 -29 23 -55 21 -57 -6 -6 -69 136 -101 225 -14 40 -32 115 -38 166 -10
81 -10 98 5 137 43 111 167 158 307 116z m-446 -107 c44 -21 89 -41 99 -44 14
-5 17 -18 17 -70 0 -86 29 -187 106 -372 3 -7 -18 -11 -54 -12 -38 -1 -83 -11
-124 -27 -66 -27 -93 -32 -84 -18 3 4 1 26 -4 49 -8 35 -5 51 25 124 29 71 31
80 12 57 -12 -15 -29 -48 -36 -73 -14 -48 -31 -68 -31 -37 0 30 -52 150 -114
261 -60 108 -67 138 -38 164 53 49 122 48 226 -2z m-1304 -103 c0 -6 -10 -22
-21 -35 -14 -14 -23 -39 -26 -70 -4 -44 1 -56 47 -133 29 -47 48 -76 44 -65
-4 11 -8 30 -8 42 -1 12 -3 20 -5 17 -6 -6 -29 43 -34 73 -3 16 -8 40 -12 55
-5 20 -1 32 14 47 12 12 21 28 21 36 0 8 4 15 9 15 9 0 38 -231 33 -265 -7
-49 -6 -135 1 -135 5 0 6 -27 2 -61 -7 -57 -6 -60 11 -51 11 5 36 17 56 27 44
20 66 51 78 108 l9 42 -3 -47 c-5 -66 -25 -92 -103 -129 -65 -30 -117 -75
-106 -92 2 -4 -1 -6 -8 -5 -21 5 -35 -77 -19 -110 13 -27 14 -26 20 30 11 88
33 116 117 150 75 29 143 41 141 23 0 -5 -24 -15 -52 -20 -97 -20 -137 -59
-144 -140 -5 -67 26 -160 66 -197 39 -36 145 -91 237 -123 44 -15 82 -30 85
-33 14 -13 -111 13 -144 30 -22 11 -76 26 -120 34 -111 19 -181 47 -279 112
-20 14 -40 22 -43 19 -3 -3 4 -25 16 -49 14 -29 15 -36 5 -23 -9 11 -29 45
-45 75 -15 30 -39 77 -54 104 -31 59 -33 100 -7 143 23 37 93 81 159 97 35 9
51 20 65 43 18 31 18 32 -8 70 -14 21 -45 63 -70 93 -48 59 -111 176 -120 225
-12 57 31 81 148 84 30 1 47 -3 47 -11z m3337 -20 c70 -73 67 -190 -5 -227
-52 -26 -102 -35 -165 -27 -81 10 -80 9 -60 114 16 84 19 92 43 97 14 3 52 21
85 40 33 19 62 35 66 35 3 0 19 -15 36 -32z m-2451 -16 c13 -8 89 -157 129
-252 35 -84 101 -228 119 -260 13 -22 11 -30 -25 -102 -40 -80 -90 -143 -140
-179 -47 -33 -214 -61 -378 -62 -157 -2 -175 4 -126 46 147 122 139 105 190
417 11 66 32 143 58 207 22 57 42 102 43 100 2 -1 -14 -54 -35 -117 -21 -63
-41 -131 -44 -150 -7 -41 -6 -38 53 115 45 116 80 185 113 223 22 24 26 25 43
14z m2575 -31 c0 8 4 6 9 -6 14 -33 11 -115 -6 -151 -22 -47 -26 -38 -9 19 8
28 10 49 4 52 -5 4 -9 0 -9 -7 0 -8 -13 -35 -29 -60 -16 -25 -26 -50 -23 -54
4 -4 1 -4 -6 1 -17 9 -94 -24 -85 -38 4 -6 -4 -8 -21 -5 -29 6 -28 1 6 -16 26
-14 35 -36 14 -36 -9 0 -16 -4 -16 -8 0 -21 -191 -74 -207 -58 -3 3 3 6 15 6
37 0 25 14 -28 33 -27 10 -70 36 -95 57 -26 22 -52 40 -58 40 -7 0 -6 4 3 10
8 5 44 10 80 10 l65 0 -42 26 c-62 36 -53 39 15 4 90 -47 156 -57 234 -36 125
34 163 76 160 181 -2 55 -1 58 13 41 11 -15 15 -16 16 -5z m-2756 -138 c-30
-72 -48 -139 -64 -229 -10 -57 -21 -107 -24 -110 -4 -4 -30 5 -59 19 -53 26
-148 124 -148 153 0 8 19 35 42 60 63 68 165 123 232 124 23 0 27 -3 21 -17z
m2206 -57 c-7 -9 -21 -18 -32 -21 -10 -4 -19 -11 -19 -17 0 -5 7 -8 15 -5 8 4
17 2 20 -3 8 -14 -52 -176 -115 -308 -59 -121 -157 -278 -169 -267 -3 4 -16
42 -28 86 l-21 80 38 72 c21 40 59 133 84 207 l46 135 47 11 c27 6 68 20 93
31 48 23 60 22 41 -1z m13 -83 c-4 -16 -13 -46 -20 -68 -16 -48 -17 -58 -4
-50 6 3 10 2 10 -3 0 -6 11 -13 25 -16 14 -4 25 -11 25 -17 0 -23 -87 -177
-142 -251 -32 -43 -88 -108 -125 -144 -57 -56 -68 -63 -74 -47 -4 10 -3 23 1
28 4 6 25 33 47 62 69 88 196 353 232 486 14 49 36 67 25 20z m-1371 -125 c37
-81 40 -95 26 -151 -14 -60 -45 -133 -60 -142 -13 -9 -35 10 -71 59 -15 21
-28 35 -28 30 0 -18 -40 71 -41 91 0 11 -5 29 -10 40 -6 13 -7 4 -2 -29 8 -66
-11 -53 -32 22 -8 31 -20 65 -25 75 -19 32 10 18 30 -15 11 -18 20 -28 20 -23
0 6 -7 20 -15 32 -14 20 -14 23 7 34 37 20 70 27 125 28 l52 1 24 -52z m-1038
-67 c22 -12 54 -21 72 -21 37 0 38 -2 19 -82 -16 -68 -69 -143 -125 -177 -22
-14 -44 -35 -50 -48 l-10 -22 -54 18 c-65 23 -111 46 -157 80 l-35 25 28 -31
c16 -17 63 -47 106 -67 89 -42 211 -62 326 -53 60 5 64 4 30 -5 -22 -5 -121
-8 -220 -6 -141 3 -188 8 -219 21 -22 10 -41 15 -44 12 -3 -2 17 -14 43 -25
48 -20 60 -39 14 -21 -21 8 -108 71 -98 71 2 0 36 -7 74 -15 39 -8 85 -15 104
-15 31 0 28 3 -37 36 -68 33 -117 77 -107 94 3 4 -2 21 -10 36 -37 71 -12 90
86 65 106 -27 164 -12 189 49 12 30 10 89 -5 125 -8 19 -7 19 16 -1 13 -12 42
-31 64 -43z m838 -361 c-10 -49 -8 -59 28 -153 50 -134 82 -263 114 -476 9
-58 18 -108 21 -113 3 -4 -2 -8 -10 -8 -15 0 -19 18 -31 150 -13 140 -81 386
-144 521 -31 65 -31 65 -15 113 15 43 18 46 32 33 12 -13 13 -25 5 -67z
m-1359 -44 c44 -21 118 -46 165 -56 103 -21 191 -51 191 -65 0 -21 -44 -135
-53 -135 -15 0 -141 52 -157 65 -8 7 -29 20 -46 28 -41 21 -131 103 -166 151
-27 37 -36 62 -20 54 4 -2 43 -21 86 -42z m391 -161 c-8 -50 -2 -56 81 -69
l41 -7 17 45 c10 25 21 46 26 46 5 0 -4 -35 -20 -77 -31 -86 -69 -307 -72
-423 -2 -50 4 -97 17 -141 12 -41 16 -72 10 -85 -6 -15 -9 -11 -16 25 -5 24
-18 62 -29 85 -26 54 -25 86 5 262 14 80 25 151 25 157 -1 15 -28 -56 -40
-103 -5 -19 -13 -36 -19 -38 -5 -2 -8 -9 -5 -15 2 -7 -11 -34 -29 -62 -24 -36
-38 -49 -52 -47 -11 2 -23 8 -26 13 -8 13 -39 -184 -39 -248 0 -55 -8 -64 -30
-37 -11 12 -9 34 9 122 12 59 31 175 42 257 11 83 24 167 30 188 l10 37 84 0
c47 0 85 4 85 9 0 13 -121 24 -133 12 -6 -6 -15 -11 -19 -11 -16 0 -10 31 27
138 2 6 9 12 15 12 8 0 9 -15 5 -45z"/>
<path d="M2720 4893 c-67 -34 -201 -163 -262 -253 -110 -162 -261 -418 -294
-497 -37 -88 -41 -113 -29 -184 9 -52 22 -51 143 10 84 42 104 58 148 112 76
96 222 309 210 309 -3 0 -33 -42 -67 -92 -105 -158 -193 -259 -251 -289 -21
-10 -39 -19 -42 -19 -5 0 -2 18 9 45 4 11 14 35 21 54 26 64 103 167 171 227
68 61 175 129 185 119 9 -9 95 111 107 147 24 77 34 338 12 338 -4 0 -31 -12
-61 -27z m45 -270 c-9 -52 -31 -96 -61 -124 -25 -23 -195 -102 -203 -94 -13
13 131 174 203 226 55 41 70 39 61 -8z"/>
<path d="M2996 722 c28 -20 48 -91 55 -197 6 -105 24 -201 38 -209 4 -3 26 4
49 14 23 10 66 27 96 36 l55 17 -25 30 c-19 23 -22 32 -13 38 10 6 7 14 -11
33 -24 23 -34 45 -75 159 -12 34 -20 45 -28 38 -19 -15 -100 4 -116 28 -7 12
-19 21 -25 21 -7 0 -8 -3 0 -8z"/>
</g>
</svg>
